<svg width="500" height="615" viewBox="0 0 500 615" fill="none" xmlns="http://www.w3.org/2000/svg">
<path d="M25 0.5H359.889C366.329 0.5 372.511 3.03623 377.096 7.55957L492.207 121.132C496.873 125.736 499.5 132.017 499.5 138.572V590C499.5 603.531 488.531 614.5 475 614.5H25C11.469 614.5 0.5 603.531 0.5 590V25C0.500007 11.6806 11.1287 0.843452 24.3672 0.507812L25 0.5Z" fill="#FF4B42" stroke="#E4E4E4"/>
<path d="M0 420H500V590C500 603.807 488.807 615 475 615H25C11.1929 615 0 603.807 0 590V420Z" fill="#E01C12"/>
<path d="M216.622 107.89C218.074 81.6565 250.487 78.4629 258.952 107.89C265.725 131.431 254.834 169.252 247.9 196.258C254.834 212.137 277.485 241.564 290.985 254.566C336.06 247.723 361.458 248.486 378.162 256.391C400.814 267.113 396.009 293.49 374.043 295.626C355.281 297.451 327.594 295.626 288.239 263.006C278.019 264.375 247.557 270.26 211.131 282.852C197.174 305.207 177.724 335.782 161.25 349.005C134.251 370.675 113.887 363.604 108.167 351.742C100.387 330.756 131.963 311.138 189.394 282.852C198.47 264.907 219.414 220.03 230.579 184.079C225.698 172.445 214.792 140.966 216.622 107.89ZM181.615 295.17C103.362 328.835 107.023 351.514 121.667 353.795C136.311 356.076 154.386 337.599 181.615 295.17ZM373.128 275.096C372.213 253.654 339.264 253.653 296.248 260.953C346.357 296.539 373.128 290.152 373.128 275.096ZM244.08 204.837C231.998 240.423 220.283 265.44 215.936 273.5C248.518 263.463 274.359 258.064 283.206 256.619C265.084 236.18 249.571 213.581 244.08 204.837ZM234.698 172.673C253.689 112.223 247.283 93.062 232.868 95.1148C217.767 97.6241 219.826 140.509 234.698 172.673Z" fill="white"/>
<path d="M172.59 526.294H148.786V512.583H172.59C176.483 512.583 179.636 511.948 182.048 510.679C184.502 509.367 186.301 507.59 187.443 505.347C188.586 503.062 189.157 500.459 189.157 497.539C189.157 494.704 188.586 492.059 187.443 489.604C186.301 487.15 184.502 485.161 182.048 483.638C179.636 482.114 176.483 481.353 172.59 481.353H154.499V560H137.043V467.578H172.59C179.784 467.578 185.92 468.869 190.998 471.45C196.118 473.989 200.012 477.523 202.678 482.051C205.386 486.536 206.74 491.657 206.74 497.412C206.74 503.379 205.386 508.521 202.678 512.837C200.012 517.153 196.118 520.475 190.998 522.803C185.92 525.13 179.784 526.294 172.59 526.294ZM248.063 560H228.132L228.259 546.289H248.063C253.438 546.289 257.945 545.104 261.584 542.734C265.223 540.322 267.974 536.873 269.836 532.388C271.698 527.86 272.629 522.443 272.629 516.138V511.377C272.629 506.51 272.1 502.215 271.042 498.491C269.984 494.767 268.418 491.636 266.345 489.097C264.313 486.558 261.796 484.632 258.791 483.32C255.786 482.008 252.338 481.353 248.444 481.353H227.751V467.578H248.444C254.623 467.578 260.251 468.615 265.329 470.688C270.45 472.762 274.872 475.745 278.596 479.639C282.362 483.49 285.24 488.102 287.229 493.477C289.26 498.851 290.275 504.86 290.275 511.504V516.138C290.275 522.739 289.26 528.748 287.229 534.165C285.24 539.539 282.362 544.152 278.596 548.003C274.872 551.854 270.428 554.816 265.266 556.89C260.103 558.963 254.369 560 248.063 560ZM237.907 467.578V560H220.451V467.578H237.907ZM322.585 467.578V560H305.129V467.578H322.585ZM359.846 507.505V521.279H318.015V507.505H359.846ZM364.733 467.578V481.353H318.015V467.578H364.733Z" fill="white"/>
</svg>
